<svg xmlns="http://www.w3.org/2000/svg" id="a" viewBox="0 0 80 84"><defs><style>.b{fill:#fff;}.c{fill:none;stroke:#fff;stroke-miterlimit:10;stroke-width:.1px;}</style></defs><g><path d="M39.74,31.21c-10.22,0-18.49,8.28-18.49,18.49s8.28,18.5,18.49,18.5,18.49-8.28,18.49-18.49-8.28-18.5-18.49-18.5Zm0,34.93c-9.07,0-16.42-7.36-16.42-16.42s7.36-16.42,16.42-16.42,16.42,7.36,16.42,16.42-7.35,16.42-16.42,16.42Zm-4.12-15.17c0,1.25-1.01,2.26-2.26,2.26s-2.26-1.01-2.26-2.26,1.01-2.26,2.26-2.26,2.26,1.01,2.26,2.26Zm12.76,0c0,1.25-1.01,2.26-2.26,2.26s-2.26-1.01-2.26-2.26,1.01-2.26,2.26-2.26,2.26,1.01,2.26,2.26Zm2.04-4.72l2.09-2.27h-4.63c-2.32-1.58-5.12-2.51-8.15-2.51s-5.81,.93-8.13,2.51h-4.64l2.09,2.27c-1.27,1.17-2.07,2.85-2.07,4.72,0,3.52,2.86,6.38,6.38,6.38,1.67,0,3.2-.65,4.33-1.7l2.05,2.23,2.05-2.22c1.14,1.06,2.66,1.7,4.33,1.7,3.52,0,6.38-2.86,6.38-6.38,.01-1.89-.8-3.56-2.08-4.73Zm-17.06,9.04c-2.38,0-4.32-1.93-4.32-4.32s1.93-4.32,4.32-4.32,4.32,1.93,4.32,4.32-1.94,4.32-4.32,4.32Zm6.38-4.45c0-2.85-2.07-5.28-4.8-6.33,1.48-.61,3.09-.96,4.8-.96s3.32,.34,4.8,.96c-2.73,1.05-4.8,3.49-4.8,6.33Zm6.38,4.45c-2.38,0-4.32-1.93-4.32-4.32s1.93-4.32,4.32-4.32,4.32,1.93,4.32,4.32-1.93,4.32-4.32,4.32Z"></path><path d="M29.45,70.16s-2.24-1.72-6.27-2.2c-4-.46-6.98,1.66-6.98,1.66,0,0,2.69,1.11,6.79,1.52,4.1,.42,6.47-.98,6.47-.98Z"></path><path d="M23.17,66.63s-2.02-2.08-5.77-3.51-7.39-.55-7.39-.55c0,0,2.32,2.2,6.3,3.72,4,1.53,6.85,.34,6.85,.34Z"></path><path d="M17.17,61.7s-1.17-2.87-4.3-5.75-7.04-3.38-7.04-3.38c0,0,1.41,3.09,4.74,6.16,3.33,3.07,6.6,2.97,6.6,2.97Z"></path><path d="M16,56.2s-.39-3.09-2.65-6.69c-2.26-3.6-5.9-5.09-5.9-5.09,0,0,.56,3.37,2.97,7.21,2.41,3.84,5.57,4.57,5.57,4.57Z"></path><path d="M16.15,48.81s-.11-3.16-2-7.02c-1.9-3.85-5.32-5.69-5.32-5.69,0,0,.26,3.46,2.27,7.57,2.02,4.11,5.05,5.14,5.05,5.14Z"></path><path d="M25.11,64.53s-.94-2.35-3.47-4.73c-2.53-2.38-5.72-2.81-5.72-2.81,0,0,1.13,2.53,3.83,5.07,2.71,2.53,5.37,2.48,5.37,2.48Z"></path><path d="M31.49,68.03s-1.3-1.27-3.67-2.2c-2.37-.93-4.62-.47-4.62-.47,0,0,1.49,1.35,4.02,2.33,2.52,.99,4.28,.34,4.28,.34Z"></path><path d="M37.69,69.29s-1.36-.56-3.37-.48c-2.02,.06-3.51,1.17-3.51,1.17,0,0,1.51,.55,3.66,.48,2.14-.09,3.22-1.17,3.22-1.17Z"></path><path d="M22.31,58.84s-.44-2.5-2.42-5.36c-1.98-2.85-5.01-3.92-5.01-3.92,0,0,.59,2.73,2.71,5.77,2.12,3.04,4.73,3.51,4.73,3.51Z"></path><path d="M19.81,51.21s.48-2.54-.33-5.95c-.82-3.41-3.21-5.5-3.21-5.5,0,0-.42,2.8,.44,6.43,.88,3.63,3.1,5.01,3.1,5.01Z"></path><path d="M50.03,70.16s2.24-1.72,6.27-2.2c4-.46,6.98,1.66,6.98,1.66,0,0-2.69,1.11-6.79,1.52-4.1,.42-6.47-.98-6.47-.98Z"></path><path d="M56.32,66.63s2.02-2.08,5.77-3.51c3.75-1.43,7.39-.55,7.39-.55,0,0-2.31,2.19-6.3,3.72-4,1.53-6.85,.34-6.85,.34Z"></path><path d="M62.32,61.7s1.17-2.87,4.3-5.75,7.04-3.38,7.04-3.38c0,0-1.41,3.09-4.74,6.16-3.33,3.07-6.6,2.97-6.6,2.97Z"></path><path d="M63.49,56.2s.39-3.09,2.65-6.69c2.26-3.6,5.9-5.09,5.9-5.09,0,0-.56,3.37-2.97,7.21-2.41,3.84-5.57,4.57-5.57,4.57Z"></path><path d="M63.34,48.81s.11-3.16,2-7.02c1.9-3.85,5.32-5.69,5.32-5.69,0,0-.26,3.46-2.27,7.57-2.03,4.11-5.05,5.14-5.05,5.14Z"></path><path d="M54.38,64.53s.94-2.35,3.47-4.73c2.53-2.38,5.72-2.81,5.72-2.81,0,0-1.13,2.53-3.83,5.07s-5.37,2.48-5.37,2.48Z"></path><path d="M48,68.03s1.3-1.27,3.67-2.2c2.37-.93,4.62-.47,4.62-.47,0,0-1.49,1.35-4.02,2.33-2.51,.99-4.28,.34-4.28,.34Z"></path><path d="M41.8,69.29s1.36-.56,3.37-.48c2.02,.06,3.51,1.17,3.51,1.17,0,0-1.51,.55-3.66,.48-2.14-.09-3.22-1.17-3.22-1.17Z"></path><path d="M57.18,58.84s.44-2.5,2.42-5.36c1.98-2.85,5.01-3.92,5.01-3.92,0,0-.59,2.73-2.71,5.77-2.12,3.04-4.73,3.51-4.73,3.51Z"></path><path d="M59.67,51.21s-.48-2.54,.33-5.95,3.21-5.5,3.21-5.5c0,0,.42,2.8-.44,6.43-.87,3.63-3.1,5.01-3.1,5.01Z"></path><path d="M39.74,71.22c.57,0,1.02-.46,1.02-1.02s-.46-1.02-1.02-1.02-1.02,.46-1.02,1.02,.46,1.02,1.02,1.02Z"></path><path d="M19.44,76.55v-.94h-1.44v5.58h1.44v-3.35c0-.6,.39-.91,.99-.91h.79v-1.34h-.67c-.53,.01-.99,.29-1.11,.95Z"></path><path d="M23.28,75.62h-1.43v5.58h1.43v-5.58Z"></path><path d="M27.24,75.52c-.65,0-1.23,.22-1.69,.57v-.47h-1.43v7.23h1.43v-2.11c.46,.36,1.06,.57,1.69,.57,1.59,0,2.89-1.29,2.89-2.89s-1.29-2.9-2.89-2.9Zm-.13,4.46c-.86,0-1.57-.7-1.57-1.57s.7-1.57,1.57-1.57,1.57,.7,1.57,1.57-.71,1.57-1.57,1.57Z"></path><path d="M55.09,77.92l-.84-.23c-.55-.14-.77-.31-.77-.6s.3-.48,.73-.48,.73,.27,.73,.61v.03h1.33v-.03c0-1.01-.83-1.69-2.06-1.69s-2.1,.68-2.1,1.62c0,.73,.48,1.28,1.33,1.51l.8,.22c.61,.17,.84,.36,.84,.69,0,.36-.32,.59-.82,.59s-.85-.32-.85-.8v-.03h-1.4v.03c0,1.14,.93,1.95,2.24,1.95s2.2-.79,2.2-1.86c.01-.53-.23-1.22-1.36-1.52Z"></path><path d="M35.22,76.09c-.46-.36-1.06-.57-1.69-.57-1.59,0-2.89,1.29-2.89,2.89s1.29,2.89,2.89,2.89c.65,0,1.23-.22,1.69-.57v.47h1.43v-5.58h-1.43v.47Zm-1.57,3.89c-.86,0-1.57-.7-1.57-1.57s.7-1.57,1.57-1.57,1.57,.7,1.57,1.57-.71,1.57-1.57,1.57Z"></path><path d="M41.84,76.09c-.46-.36-1.06-.57-1.69-.57-1.59,0-2.89,1.29-2.89,2.89s1.29,2.89,2.89,2.89c.65,0,1.23-.22,1.69-.57v.47h1.43v-7.58h-1.43v2.47Zm-1.56,3.89c-.86,0-1.57-.7-1.57-1.57s.7-1.57,1.57-1.57,1.57,.7,1.57,1.57c-.01,.87-.71,1.57-1.57,1.57Z"></path><path d="M51.38,75.62h-1.43v5.58h1.43v-5.58Z"></path><path d="M59.77,75.52c-1.59,0-2.89,1.29-2.89,2.89s1.29,2.89,2.89,2.89,2.89-1.29,2.89-2.89-1.29-2.89-2.89-2.89Zm0,4.46c-.86,0-1.57-.7-1.57-1.57s.7-1.57,1.57-1.57,1.57,.7,1.57,1.57-.71,1.57-1.57,1.57Z"></path><path d="M64.76,76.55v-.94h-1.44v5.58h1.44v-3.35c0-.6,.39-.91,.99-.91h.79v-1.34h-.67c-.53,.01-.98,.29-1.11,.95Z"></path><path d="M18.69,73.63h-5.51v1.27h2.04v6.29h1.43v-6.29h2.04v-1.27Z"></path><path d="M46.56,79.67l-1.28-4.05h-1.51l1.92,5.58h1.74l1.93-5.58h-1.51l-1.28,4.05Z"></path><path d="M22.56,75.16c.48,0,.87-.39,.87-.87s-.39-.87-.87-.87-.87,.39-.87,.87,.39,.87,.87,.87Z"></path><path d="M50.67,75.16c.48,0,.87-.39,.87-.87s-.39-.87-.87-.87-.87,.39-.87,.87,.39,.87,.87,.87Z"></path><path d="M18.82,10.75h-2.4v7.1h-1.86v-7.1h-2.4v-1.71h6.68v1.71h-.01Z"></path><path d="M22.12,11.63v1.67h-.94c-.68,0-1.01,.32-1.01,1.01v3.55h-1.77v-6.23h1.64v1.16c.14-.83,.7-1.16,1.29-1.16h.79Z"></path><path d="M22.34,14.75c0-1.83,1.29-3.29,3.08-3.29,.88,0,1.54,.28,1.95,.7v-.53h1.64v6.23h-1.64v-.75c-.4,.54-.99,.94-2,.94-1.75-.01-3.03-1.47-3.03-3.3Zm5.04,0c0-.99-.73-1.65-1.64-1.65s-1.64,.66-1.64,1.65,.73,1.65,1.64,1.65,1.64-.66,1.64-1.65Z"></path><path d="M29.71,11.63h1.89l.95,3.29c.12,.38,.17,.63,.24,.92,.06-.29,.13-.54,.24-.92l.95-3.29h1.89l-2.07,6.23h-2.02l-2.06-6.23Z"></path><path d="M42.19,15.17h-4.62c.08,.86,.72,1.41,1.49,1.41,.72,0,1.25-.38,1.4-.95h1.69c-.3,1.52-1.42,2.4-3.08,2.4-1.95,0-3.23-1.43-3.23-3.29s1.48-3.29,3.22-3.29c1.96,0,3.15,1.2,3.15,3.43v.28h-.01Zm-4.53-1.33h2.89c-.17-.61-.67-1.02-1.48-1.02-.65,0-1.19,.39-1.41,1.02Z"></path><path d="M42.99,9.04h1.77v8.82h-1.77V9.04Z"></path><path d="M45.83,9.04h1.77v8.82h-1.77V9.04Z"></path><path d="M54.71,15.17h-4.62c.08,.86,.72,1.41,1.49,1.41,.72,0,1.25-.38,1.4-.95h1.69c-.3,1.52-1.42,2.4-3.08,2.4-1.95,0-3.23-1.43-3.23-3.29s1.48-3.29,3.22-3.29c1.96,0,3.15,1.2,3.15,3.43v.28h-.01Zm-4.54-1.33h2.89c-.17-.61-.67-1.02-1.48-1.02-.64,0-1.19,.39-1.41,1.02Z"></path><path d="M59.24,11.63v1.67h-.94c-.68,0-1.01,.32-1.01,1.01v3.55h-1.77v-6.23h1.64v1.16c.14-.83,.7-1.16,1.29-1.16h.79Z"></path><path d="M59.71,15.83h1.79c0,.43,.27,.72,.69,.72s.67-.2,.67-.52c0-.34-.28-.53-.84-.69l-.82-.24c-.82-.24-1.39-.82-1.39-1.72,0-1.14,1.03-1.91,2.32-1.91,1.47,0,2.26,.83,2.26,1.99h-1.66c0-.3-.24-.59-.61-.59-.36,0-.59,.2-.59,.44,0,.29,.23,.43,.72,.57l.91,.25c.83,.23,1.41,.8,1.41,1.72,0,1.17-.92,2.19-2.39,2.19-1.36-.01-2.46-.85-2.46-2.22Z"></path><path d="M65.25,11.9h.16c.43,0,.82-.23,.89-.87-.08,.04-.15,.05-.25,.05-.61,0-1.1-.46-1.1-1.11s.5-1.11,1.11-1.11c.8,0,1.24,.73,1.24,1.69,0,1.54-.74,2.25-1.79,2.25h-.27v-.91h0Z"></path><path d="M20.14,24.78c0-2.71,2.02-4.59,4.45-4.59s3.86,1.31,4.19,3.41h-1.91c-.28-1.03-1.11-1.66-2.3-1.66-1.42,0-2.59,1.16-2.59,2.85s1.16,2.85,2.59,2.85c1.17,0,2.02-.6,2.3-1.68h1.94c-.38,2.11-2.04,3.42-4.24,3.42-2.46,.01-4.44-1.86-4.44-4.58Z"></path><path d="M29.6,20.37h1.77v3.44c.28-.52,.98-1.02,1.98-1.02,1.24,0,2.1,.87,2.1,2.3v4.12h-1.77v-3.6c0-.73-.5-1.24-1.16-1.24s-1.16,.51-1.16,1.24v3.6h-1.77v-8.83h.01Z"></path><path d="M36.13,26.08c0-1.83,1.34-3.29,3.36-3.29s3.36,1.47,3.36,3.29-1.34,3.29-3.36,3.29-3.36-1.47-3.36-3.29Zm4.97,0c0-.99-.69-1.65-1.59-1.65s-1.59,.66-1.59,1.65,.69,1.65,1.59,1.65,1.59-.66,1.59-1.65Z"></path><path d="M43.33,21.06c0-.61,.5-1.11,1.11-1.11s1.11,.5,1.11,1.11-.5,1.11-1.11,1.11-1.11-.48-1.11-1.11Zm.23,1.91h1.77v6.23h-1.77v-6.23Z"></path><path d="M46.03,26.08c0-1.83,1.33-3.29,3.29-3.29s3.03,1.05,3.21,2.51h-1.84c-.17-.52-.61-.87-1.37-.87-.8,0-1.52,.66-1.52,1.65s.72,1.65,1.52,1.65c.74,0,1.17-.32,1.37-.87h1.84c-.29,1.52-1.31,2.51-3.21,2.51s-3.29-1.47-3.29-3.29Z"></path><path d="M59.26,26.49h-4.62c.08,.86,.72,1.41,1.49,1.41,.72,0,1.25-.38,1.4-.95h1.68c-.3,1.52-1.42,2.4-3.08,2.4-1.95,0-3.23-1.43-3.23-3.29s1.48-3.29,3.22-3.29c1.96,0,3.15,1.2,3.15,3.43v.28Zm-4.54-1.31h2.89c-.17-.61-.67-1.02-1.48-1.02-.65,0-1.19,.39-1.41,1.02Z"></path><path d="M58.64,20.87h1.06v.23h-.41v1.19h-.24v-1.19h-.41v-.23Z"></path><path d="M60.58,21.92l-.39-1.06h-.29v1.41h.24v-.79c0-.08-.01-.14-.01-.22l.37,1h.17l.37-1c-.01,.08-.01,.14-.01,.22v.79h.24v-1.41h-.29l-.39,1.06Z"></path><path d="M30.68,6.22l1.92-1.81c.5-.46,.72-.71,.72-1.2,0-.52-.4-.84-.94-.84-.61,0-.96,.38-1,.88h-.73c.03-.88,.68-1.57,1.76-1.57s1.67,.63,1.67,1.5c0,.61-.29,1.09-.92,1.65l-1.41,1.27h2.37v.71h-3.45v-.59h.01Z"></path><path d="M34.9,4.3c0-1.49,1.09-2.64,2.58-2.64s2.58,1.14,2.58,2.64-1.09,2.64-2.58,2.64-2.58-1.14-2.58-2.64Zm4.39,0c0-1.2-.83-1.94-1.81-1.94s-1.81,.74-1.81,1.94,.83,1.94,1.81,1.94,1.81-.73,1.81-1.94Z"></path><path d="M40.81,6.22l1.92-1.81c.5-.46,.72-.71,.72-1.2,0-.52-.4-.84-.94-.84-.61,0-.96,.38-1,.88h-.73c.03-.88,.68-1.57,1.76-1.57s1.67,.63,1.67,1.5c0,.61-.29,1.09-.92,1.65l-1.41,1.27h2.37v.71h-3.45v-.59h.01Z"></path><path d="M45.29,6.22l1.92-1.81c.5-.46,.72-.71,.72-1.2,0-.52-.4-.84-.94-.84-.61,0-.96,.38-1,.88h-.73c.03-.88,.68-1.57,1.76-1.57s1.67,.63,1.67,1.5c0,.61-.29,1.09-.92,1.65l-1.41,1.27h2.37v.71h-3.45v-.59h.01Z"></path></g><g><path class="b" d="M39.74,31.21c-10.22,0-18.49,8.28-18.49,18.49s8.28,18.5,18.49,18.5,18.49-8.28,18.49-18.49-8.28-18.5-18.49-18.5Zm0,34.93c-9.07,0-16.42-7.36-16.42-16.42s7.36-16.42,16.42-16.42,16.42,7.36,16.42,16.42-7.35,16.42-16.42,16.42Zm-4.12-15.17c0,1.25-1.01,2.26-2.26,2.26s-2.26-1.01-2.26-2.26,1.01-2.26,2.26-2.26,2.26,1.01,2.26,2.26Zm12.76,0c0,1.25-1.01,2.26-2.26,2.26s-2.26-1.01-2.26-2.26,1.01-2.26,2.26-2.26,2.26,1.01,2.26,2.26Zm2.04-4.72l2.09-2.27h-4.63c-2.32-1.58-5.12-2.51-8.15-2.51s-5.81,.93-8.13,2.51h-4.64l2.09,2.27c-1.27,1.17-2.07,2.85-2.07,4.72,0,3.52,2.86,6.38,6.38,6.38,1.67,0,3.2-.65,4.33-1.7l2.05,2.23,2.05-2.22c1.14,1.06,2.66,1.7,4.33,1.7,3.52,0,6.38-2.86,6.38-6.38,.01-1.89-.8-3.56-2.08-4.73Zm-17.06,9.04c-2.38,0-4.32-1.93-4.32-4.32s1.93-4.32,4.32-4.32,4.32,1.93,4.32,4.32-1.94,4.32-4.32,4.32Zm6.38-4.45c0-2.85-2.07-5.28-4.8-6.33,1.48-.61,3.09-.96,4.8-.96s3.32,.34,4.8,.96c-2.73,1.05-4.8,3.49-4.8,6.33Zm6.38,4.45c-2.38,0-4.32-1.93-4.32-4.32s1.93-4.32,4.32-4.32,4.32,1.93,4.32,4.32-1.93,4.32-4.32,4.32Z"></path><path class="b" d="M29.45,70.16s-2.24-1.72-6.27-2.2c-4-.46-6.98,1.66-6.98,1.66,0,0,2.69,1.11,6.79,1.52,4.1,.42,6.47-.98,6.47-.98Z"></path><path class="b" d="M23.17,66.63s-2.02-2.08-5.77-3.51-7.39-.55-7.39-.55c0,0,2.32,2.2,6.3,3.72,4,1.53,6.85,.34,6.85,.34Z"></path><path class="b" d="M17.17,61.7s-1.17-2.87-4.3-5.75-7.04-3.38-7.04-3.38c0,0,1.41,3.09,4.74,6.16,3.33,3.07,6.6,2.97,6.6,2.97Z"></path><path class="b" d="M16,56.2s-.39-3.09-2.65-6.69c-2.26-3.6-5.9-5.09-5.9-5.09,0,0,.56,3.37,2.97,7.21,2.41,3.84,5.57,4.57,5.57,4.57Z"></path><path class="b" d="M16.15,48.81s-.11-3.16-2-7.02c-1.9-3.85-5.32-5.69-5.32-5.69,0,0,.26,3.46,2.27,7.57,2.02,4.11,5.05,5.14,5.05,5.14Z"></path><path class="b" d="M25.11,64.53s-.94-2.35-3.47-4.73c-2.53-2.38-5.72-2.81-5.72-2.81,0,0,1.13,2.53,3.83,5.07,2.71,2.53,5.37,2.48,5.37,2.48Z"></path><path class="b" d="M31.49,68.03s-1.3-1.27-3.67-2.2c-2.37-.93-4.62-.47-4.62-.47,0,0,1.49,1.35,4.02,2.33,2.52,.99,4.28,.34,4.28,.34Z"></path><path class="b" d="M37.69,69.29s-1.36-.56-3.37-.48c-2.02,.06-3.51,1.17-3.51,1.17,0,0,1.51,.55,3.66,.48,2.14-.09,3.22-1.17,3.22-1.17Z"></path><path class="b" d="M22.31,58.84s-.44-2.5-2.42-5.36c-1.98-2.85-5.01-3.92-5.01-3.92,0,0,.59,2.73,2.71,5.77,2.12,3.04,4.73,3.51,4.73,3.51Z"></path><path class="b" d="M19.81,51.21s.48-2.54-.33-5.95c-.82-3.41-3.21-5.5-3.21-5.5,0,0-.42,2.8,.44,6.43,.88,3.63,3.1,5.01,3.1,5.01Z"></path><path class="b" d="M50.03,70.16s2.24-1.72,6.27-2.2c4-.46,6.98,1.66,6.98,1.66,0,0-2.69,1.11-6.79,1.52-4.1,.42-6.47-.98-6.47-.98Z"></path><path class="b" d="M56.32,66.63s2.02-2.08,5.77-3.51c3.75-1.43,7.39-.55,7.39-.55,0,0-2.31,2.19-6.3,3.72-4,1.53-6.85,.34-6.85,.34Z"></path><path class="b" d="M62.32,61.7s1.17-2.87,4.3-5.75,7.04-3.38,7.04-3.38c0,0-1.41,3.09-4.74,6.16-3.33,3.07-6.6,2.97-6.6,2.97Z"></path><path class="b" d="M63.49,56.2s.39-3.09,2.65-6.69c2.26-3.6,5.9-5.09,5.9-5.09,0,0-.56,3.37-2.97,7.21-2.41,3.84-5.57,4.57-5.57,4.57Z"></path><path class="b" d="M63.34,48.81s.11-3.16,2-7.02c1.9-3.85,5.32-5.69,5.32-5.69,0,0-.26,3.46-2.27,7.57-2.03,4.11-5.05,5.14-5.05,5.14Z"></path><path class="b" d="M54.38,64.53s.94-2.35,3.47-4.73c2.53-2.38,5.72-2.81,5.72-2.81,0,0-1.13,2.53-3.83,5.07s-5.37,2.48-5.37,2.48Z"></path><path class="b" d="M48,68.03s1.3-1.27,3.67-2.2c2.37-.93,4.62-.47,4.62-.47,0,0-1.49,1.35-4.02,2.33-2.51,.99-4.28,.34-4.28,.34Z"></path><path class="b" d="M41.8,69.29s1.36-.56,3.37-.48c2.02,.06,3.51,1.17,3.51,1.17,0,0-1.51,.55-3.66,.48-2.14-.09-3.22-1.17-3.22-1.17Z"></path><path class="b" d="M57.18,58.84s.44-2.5,2.42-5.36c1.98-2.85,5.01-3.92,5.01-3.92,0,0-.59,2.73-2.71,5.77-2.12,3.04-4.73,3.51-4.73,3.51Z"></path><path class="b" d="M59.67,51.21s-.48-2.54,.33-5.95,3.21-5.5,3.21-5.5c0,0,.42,2.8-.44,6.43-.87,3.63-3.1,5.01-3.1,5.01Z"></path><path class="b" d="M39.74,71.22c.57,0,1.02-.46,1.02-1.02s-.46-1.02-1.02-1.02-1.02,.46-1.02,1.02,.46,1.02,1.02,1.02Z"></path><path class="b" d="M19.44,76.55v-.94h-1.44v5.58h1.44v-3.35c0-.6,.39-.91,.99-.91h.79v-1.34h-.67c-.53,.01-.99,.29-1.11,.95Z"></path><path class="b" d="M23.28,75.62h-1.43v5.58h1.43v-5.58Z"></path><path class="b" d="M27.24,75.52c-.65,0-1.23,.22-1.69,.57v-.47h-1.43v7.23h1.43v-2.11c.46,.36,1.06,.57,1.69,.57,1.59,0,2.89-1.29,2.89-2.89s-1.29-2.9-2.89-2.9Zm-.13,4.46c-.86,0-1.57-.7-1.57-1.57s.7-1.57,1.57-1.57,1.57,.7,1.57,1.57-.71,1.57-1.57,1.57Z"></path><path class="b" d="M55.09,77.92l-.84-.23c-.55-.14-.77-.31-.77-.6s.3-.48,.73-.48,.73,.27,.73,.61v.03h1.33v-.03c0-1.01-.83-1.69-2.06-1.69s-2.1,.68-2.1,1.62c0,.73,.48,1.28,1.33,1.51l.8,.22c.61,.17,.84,.36,.84,.69,0,.36-.32,.59-.82,.59s-.85-.32-.85-.8v-.03h-1.4v.03c0,1.14,.93,1.95,2.24,1.95s2.2-.79,2.2-1.86c.01-.53-.23-1.22-1.36-1.52Z"></path><path class="b" d="M35.22,76.09c-.46-.36-1.06-.57-1.69-.57-1.59,0-2.89,1.29-2.89,2.89s1.29,2.89,2.89,2.89c.65,0,1.23-.22,1.69-.57v.47h1.43v-5.58h-1.43v.47Zm-1.57,3.89c-.86,0-1.57-.7-1.57-1.57s.7-1.57,1.57-1.57,1.57,.7,1.57,1.57-.71,1.57-1.57,1.57Z"></path><path class="b" d="M41.84,76.09c-.46-.36-1.06-.57-1.69-.57-1.59,0-2.89,1.29-2.89,2.89s1.29,2.89,2.89,2.89c.65,0,1.23-.22,1.69-.57v.47h1.43v-7.58h-1.43v2.47Zm-1.56,3.89c-.86,0-1.57-.7-1.57-1.57s.7-1.57,1.57-1.57,1.57,.7,1.57,1.57c-.01,.87-.71,1.57-1.57,1.57Z"></path><path class="b" d="M51.38,75.62h-1.43v5.58h1.43v-5.58Z"></path><path class="b" d="M59.77,75.52c-1.59,0-2.89,1.29-2.89,2.89s1.29,2.89,2.89,2.89,2.89-1.29,2.89-2.89-1.29-2.89-2.89-2.89Zm0,4.46c-.86,0-1.57-.7-1.57-1.57s.7-1.57,1.57-1.57,1.57,.7,1.57,1.57-.71,1.57-1.57,1.57Z"></path><path class="b" d="M64.76,76.55v-.94h-1.44v5.58h1.44v-3.35c0-.6,.39-.91,.99-.91h.79v-1.34h-.67c-.53,.01-.98,.29-1.11,.95Z"></path><path class="b" d="M18.69,73.63h-5.51v1.27h2.04v6.29h1.43v-6.29h2.04v-1.27Z"></path><path class="b" d="M46.56,79.67l-1.28-4.05h-1.51l1.92,5.58h1.74l1.93-5.58h-1.51l-1.28,4.05Z"></path><path class="b" d="M22.56,75.16c.48,0,.87-.39,.87-.87s-.39-.87-.87-.87-.87,.39-.87,.87,.39,.87,.87,.87Z"></path><path class="b" d="M50.67,75.16c.48,0,.87-.39,.87-.87s-.39-.87-.87-.87-.87,.39-.87,.87,.39,.87,.87,.87Z"></path><path class="b" d="M18.82,10.75h-2.4v7.1h-1.86v-7.1h-2.4v-1.71h6.68v1.71h-.01Z"></path><path class="b" d="M22.12,11.63v1.67h-.94c-.68,0-1.01,.32-1.01,1.01v3.55h-1.77v-6.23h1.64v1.16c.14-.83,.7-1.16,1.29-1.16h.79Z"></path><path class="b" d="M22.34,14.75c0-1.83,1.29-3.29,3.08-3.29,.88,0,1.54,.28,1.95,.7v-.53h1.64v6.23h-1.64v-.75c-.4,.54-.99,.94-2,.94-1.75-.01-3.03-1.47-3.03-3.3Zm5.04,0c0-.99-.73-1.65-1.64-1.65s-1.64,.66-1.64,1.65,.73,1.65,1.64,1.65,1.64-.66,1.64-1.65Z"></path><path class="b" d="M29.71,11.63h1.89l.95,3.29c.12,.38,.17,.63,.24,.92,.06-.29,.13-.54,.24-.92l.95-3.29h1.89l-2.07,6.23h-2.02l-2.06-6.23Z"></path><path class="b" d="M42.19,15.17h-4.62c.08,.86,.72,1.41,1.49,1.41,.72,0,1.25-.38,1.4-.95h1.69c-.3,1.52-1.42,2.4-3.08,2.4-1.95,0-3.23-1.43-3.23-3.29s1.48-3.29,3.22-3.29c1.96,0,3.15,1.2,3.15,3.43v.28h-.01Zm-4.53-1.33h2.89c-.17-.61-.67-1.02-1.48-1.02-.65,0-1.19,.39-1.41,1.02Z"></path><path class="b" d="M42.99,9.04h1.77v8.82h-1.77V9.04Z"></path><path class="b" d="M45.83,9.04h1.77v8.82h-1.77V9.04Z"></path><path class="b" d="M54.71,15.17h-4.62c.08,.86,.72,1.41,1.49,1.41,.72,0,1.25-.38,1.4-.95h1.69c-.3,1.52-1.42,2.4-3.08,2.4-1.95,0-3.23-1.43-3.23-3.29s1.48-3.29,3.22-3.29c1.96,0,3.15,1.2,3.15,3.43v.28h-.01Zm-4.54-1.33h2.89c-.17-.61-.67-1.02-1.48-1.02-.64,0-1.19,.39-1.41,1.02Z"></path><path class="b" d="M59.24,11.63v1.67h-.94c-.68,0-1.01,.32-1.01,1.01v3.55h-1.77v-6.23h1.64v1.16c.14-.83,.7-1.16,1.29-1.16h.79Z"></path><path class="b" d="M59.71,15.83h1.79c0,.43,.27,.72,.69,.72s.67-.2,.67-.52c0-.34-.28-.53-.84-.69l-.82-.24c-.82-.24-1.39-.82-1.39-1.72,0-1.14,1.03-1.91,2.32-1.91,1.47,0,2.26,.83,2.26,1.99h-1.66c0-.3-.24-.59-.61-.59-.36,0-.59,.2-.59,.44,0,.29,.23,.43,.72,.57l.91,.25c.83,.23,1.41,.8,1.41,1.72,0,1.17-.92,2.19-2.39,2.19-1.36-.01-2.46-.85-2.46-2.22Z"></path><path class="b" d="M65.25,11.9h.16c.43,0,.82-.23,.89-.87-.08,.04-.15,.05-.25,.05-.61,0-1.1-.46-1.1-1.11s.5-1.11,1.11-1.11c.8,0,1.24,.73,1.24,1.69,0,1.54-.74,2.25-1.79,2.25h-.27v-.91h0Z"></path><path class="b" d="M20.14,24.78c0-2.71,2.02-4.59,4.45-4.59s3.86,1.31,4.19,3.41h-1.91c-.28-1.03-1.11-1.66-2.3-1.66-1.42,0-2.59,1.16-2.59,2.85s1.16,2.85,2.59,2.85c1.17,0,2.02-.6,2.3-1.68h1.94c-.38,2.11-2.04,3.42-4.24,3.42-2.46,.01-4.44-1.86-4.44-4.58Z"></path><path class="b" d="M29.6,20.37h1.77v3.44c.28-.52,.98-1.02,1.98-1.02,1.24,0,2.1,.87,2.1,2.3v4.12h-1.77v-3.6c0-.73-.5-1.24-1.16-1.24s-1.16,.51-1.16,1.24v3.6h-1.77v-8.83h.01Z"></path><path class="b" d="M36.13,26.08c0-1.83,1.34-3.29,3.36-3.29s3.36,1.47,3.36,3.29-1.34,3.29-3.36,3.29-3.36-1.47-3.36-3.29Zm4.97,0c0-.99-.69-1.65-1.59-1.65s-1.59,.66-1.59,1.65,.69,1.65,1.59,1.65,1.59-.66,1.59-1.65Z"></path><path class="b" d="M43.33,21.06c0-.61,.5-1.11,1.11-1.11s1.11,.5,1.11,1.11-.5,1.11-1.11,1.11-1.11-.48-1.11-1.11Zm.23,1.91h1.77v6.23h-1.77v-6.23Z"></path><path class="b" d="M46.03,26.08c0-1.83,1.33-3.29,3.29-3.29s3.03,1.05,3.21,2.51h-1.84c-.17-.52-.61-.87-1.37-.87-.8,0-1.52,.66-1.52,1.65s.72,1.65,1.52,1.65c.74,0,1.17-.32,1.37-.87h1.84c-.29,1.52-1.31,2.51-3.21,2.51s-3.29-1.47-3.29-3.29Z"></path><path class="b" d="M59.26,26.49h-4.62c.08,.86,.72,1.41,1.49,1.41,.72,0,1.25-.38,1.4-.95h1.68c-.3,1.52-1.42,2.4-3.08,2.4-1.95,0-3.23-1.43-3.23-3.29s1.48-3.29,3.22-3.29c1.96,0,3.15,1.2,3.15,3.43v.28Zm-4.54-1.31h2.89c-.17-.61-.67-1.02-1.48-1.02-.65,0-1.19,.39-1.41,1.02Z"></path><path class="b" d="M58.64,20.87h1.06v.23h-.41v1.19h-.24v-1.19h-.41v-.23Z"></path><path class="b" d="M60.58,21.92l-.39-1.06h-.29v1.41h.24v-.79c0-.08-.01-.14-.01-.22l.37,1h.17l.37-1c-.01,.08-.01,.14-.01,.22v.79h.24v-1.41h-.29l-.39,1.06Z"></path><path class="b" d="M30.68,6.22l1.92-1.81c.5-.46,.72-.71,.72-1.2,0-.52-.4-.84-.94-.84-.61,0-.96,.38-1,.88h-.73c.03-.88,.68-1.57,1.76-1.57s1.67,.63,1.67,1.5c0,.61-.29,1.09-.92,1.65l-1.41,1.27h2.37v.71h-3.45v-.59h.01Z"></path><path class="b" d="M34.9,4.3c0-1.49,1.09-2.64,2.58-2.64s2.58,1.14,2.58,2.64-1.09,2.64-2.58,2.64-2.58-1.14-2.58-2.64Zm4.39,0c0-1.2-.83-1.94-1.81-1.94s-1.81,.74-1.81,1.94,.83,1.94,1.81,1.94,1.81-.73,1.81-1.94Z"></path><path class="b" d="M40.81,6.22l1.92-1.81c.5-.46,.72-.71,.72-1.2,0-.52-.4-.84-.94-.84-.61,0-.96,.38-1,.88h-.73c.03-.88,.68-1.57,1.76-1.57s1.67,.63,1.67,1.5c0,.61-.29,1.09-.92,1.65l-1.41,1.27h2.37v.71h-3.45v-.59h.01Z"></path><path class="b" d="M45.29,6.22l1.92-1.81c.5-.46,.72-.71,.72-1.2,0-.52-.4-.84-.94-.84-.61,0-.96,.38-1,.88h-.73c.03-.88,.68-1.57,1.76-1.57s1.67,.63,1.67,1.5c0,.61-.29,1.09-.92,1.65l-1.41,1.27h2.37v.71h-3.45v-.59h.01Z"></path></g><g><path class="c" d="M39.74,31.21c-10.22,0-18.49,8.28-18.49,18.49s8.28,18.5,18.49,18.5,18.49-8.28,18.49-18.49-8.28-18.5-18.49-18.5Zm0,34.93c-9.07,0-16.42-7.36-16.42-16.42s7.36-16.42,16.42-16.42,16.42,7.36,16.42,16.42-7.35,16.42-16.42,16.42Zm-4.12-15.17c0,1.25-1.01,2.26-2.26,2.26s-2.26-1.01-2.26-2.26,1.01-2.26,2.26-2.26,2.26,1.01,2.26,2.26Zm12.76,0c0,1.25-1.01,2.26-2.26,2.26s-2.26-1.01-2.26-2.26,1.01-2.26,2.26-2.26,2.26,1.01,2.26,2.26Zm2.04-4.72l2.09-2.27h-4.63c-2.32-1.58-5.12-2.51-8.15-2.51s-5.81,.93-8.13,2.51h-4.64l2.09,2.27c-1.27,1.17-2.07,2.85-2.07,4.72,0,3.52,2.86,6.38,6.38,6.38,1.67,0,3.2-.65,4.33-1.7l2.05,2.23,2.05-2.22c1.14,1.06,2.66,1.7,4.33,1.7,3.52,0,6.38-2.86,6.38-6.38,.01-1.89-.8-3.56-2.08-4.73Zm-17.06,9.04c-2.38,0-4.32-1.93-4.32-4.32s1.93-4.32,4.32-4.32,4.32,1.93,4.32,4.32-1.94,4.32-4.32,4.32Zm6.38-4.45c0-2.85-2.07-5.28-4.8-6.33,1.48-.61,3.09-.96,4.8-.96s3.32,.34,4.8,.96c-2.73,1.05-4.8,3.49-4.8,6.33Zm6.38,4.45c-2.38,0-4.32-1.93-4.32-4.32s1.93-4.32,4.32-4.32,4.32,1.93,4.32,4.32-1.93,4.32-4.32,4.32Z"></path><path class="c" d="M29.45,70.16s-2.24-1.72-6.27-2.2c-4-.46-6.98,1.66-6.98,1.66,0,0,2.69,1.11,6.79,1.52,4.1,.42,6.47-.98,6.47-.98Z"></path><path class="c" d="M23.17,66.63s-2.02-2.08-5.77-3.51-7.39-.55-7.39-.55c0,0,2.32,2.2,6.3,3.72,4,1.53,6.85,.34,6.85,.34Z"></path><path class="c" d="M17.17,61.7s-1.17-2.87-4.3-5.75-7.04-3.38-7.04-3.38c0,0,1.41,3.09,4.74,6.16,3.33,3.07,6.6,2.97,6.6,2.97Z"></path><path class="c" d="M16,56.2s-.39-3.09-2.65-6.69c-2.26-3.6-5.9-5.09-5.9-5.09,0,0,.56,3.37,2.97,7.21,2.41,3.84,5.57,4.57,5.57,4.57Z"></path><path class="c" d="M16.15,48.81s-.11-3.16-2-7.02c-1.9-3.85-5.32-5.69-5.32-5.69,0,0,.26,3.46,2.27,7.57,2.02,4.11,5.05,5.14,5.05,5.14Z"></path><path class="c" d="M25.11,64.53s-.94-2.35-3.47-4.73c-2.53-2.38-5.72-2.81-5.72-2.81,0,0,1.13,2.53,3.83,5.07,2.71,2.53,5.37,2.48,5.37,2.48Z"></path><path class="c" d="M31.49,68.03s-1.3-1.27-3.67-2.2c-2.37-.93-4.62-.47-4.62-.47,0,0,1.49,1.35,4.02,2.33,2.52,.99,4.28,.34,4.28,.34Z"></path><path class="c" d="M37.69,69.29s-1.36-.56-3.37-.48c-2.02,.06-3.51,1.17-3.51,1.17,0,0,1.51,.55,3.66,.48,2.14-.09,3.22-1.17,3.22-1.17Z"></path><path class="c" d="M22.31,58.84s-.44-2.5-2.42-5.36c-1.98-2.85-5.01-3.92-5.01-3.92,0,0,.59,2.73,2.71,5.77,2.12,3.04,4.73,3.51,4.73,3.51Z"></path><path class="c" d="M19.81,51.21s.48-2.54-.33-5.95c-.82-3.41-3.21-5.5-3.21-5.5,0,0-.42,2.8,.44,6.43,.88,3.63,3.1,5.01,3.1,5.01Z"></path><path class="c" d="M50.03,70.16s2.24-1.72,6.27-2.2c4-.46,6.98,1.66,6.98,1.66,0,0-2.69,1.11-6.79,1.52-4.1,.42-6.47-.98-6.47-.98Z"></path><path class="c" d="M56.32,66.63s2.02-2.08,5.77-3.51c3.75-1.43,7.39-.55,7.39-.55,0,0-2.31,2.19-6.3,3.72-4,1.53-6.85,.34-6.85,.34Z"></path><path class="c" d="M62.32,61.7s1.17-2.87,4.3-5.75,7.04-3.38,7.04-3.38c0,0-1.41,3.09-4.74,6.16-3.33,3.07-6.6,2.97-6.6,2.97Z"></path><path class="c" d="M63.49,56.2s.39-3.09,2.65-6.69c2.26-3.6,5.9-5.09,5.9-5.09,0,0-.56,3.37-2.97,7.21-2.41,3.84-5.57,4.57-5.57,4.57Z"></path><path class="c" d="M63.34,48.81s.11-3.16,2-7.02c1.9-3.85,5.32-5.69,5.32-5.69,0,0-.26,3.46-2.27,7.57-2.03,4.11-5.05,5.14-5.05,5.14Z"></path><path class="c" d="M54.38,64.53s.94-2.35,3.47-4.73c2.53-2.38,5.72-2.81,5.72-2.81,0,0-1.13,2.53-3.83,5.07s-5.37,2.48-5.37,2.48Z"></path><path class="c" d="M48,68.03s1.3-1.27,3.67-2.2c2.37-.93,4.62-.47,4.62-.47,0,0-1.49,1.35-4.02,2.33-2.51,.99-4.28,.34-4.28,.34Z"></path><path class="c" d="M41.8,69.29s1.36-.56,3.37-.48c2.02,.06,3.51,1.17,3.51,1.17,0,0-1.51,.55-3.66,.48-2.14-.09-3.22-1.17-3.22-1.17Z"></path><path class="c" d="M57.18,58.84s.44-2.5,2.42-5.36c1.98-2.85,5.01-3.92,5.01-3.92,0,0-.59,2.73-2.71,5.77-2.12,3.04-4.73,3.51-4.73,3.51Z"></path><path class="c" d="M59.67,51.21s-.48-2.54,.33-5.95,3.21-5.5,3.21-5.5c0,0,.42,2.8-.44,6.43-.87,3.63-3.1,5.01-3.1,5.01Z"></path><path class="c" d="M39.74,71.22c.57,0,1.02-.46,1.02-1.02s-.46-1.02-1.02-1.02-1.02,.46-1.02,1.02,.46,1.02,1.02,1.02Z"></path><path class="c" d="M19.44,76.55v-.94h-1.44v5.58h1.44v-3.35c0-.6,.39-.91,.99-.91h.79v-1.34h-.67c-.53,.01-.99,.29-1.11,.95Z"></path><path class="c" d="M23.28,75.62h-1.43v5.58h1.43v-5.58Z"></path><path class="c" d="M27.24,75.52c-.65,0-1.23,.22-1.69,.57v-.47h-1.43v7.23h1.43v-2.11c.46,.36,1.06,.57,1.69,.57,1.59,0,2.89-1.29,2.89-2.89s-1.29-2.9-2.89-2.9Zm-.13,4.46c-.86,0-1.57-.7-1.57-1.57s.7-1.57,1.57-1.57,1.57,.7,1.57,1.57-.71,1.57-1.57,1.57Z"></path><path class="c" d="M55.09,77.92l-.84-.23c-.55-.14-.77-.31-.77-.6s.3-.48,.73-.48,.73,.27,.73,.61v.03h1.33v-.03c0-1.01-.83-1.69-2.06-1.69s-2.1,.68-2.1,1.62c0,.73,.48,1.28,1.33,1.51l.8,.22c.61,.17,.84,.36,.84,.69,0,.36-.32,.59-.82,.59s-.85-.32-.85-.8v-.03h-1.4v.03c0,1.14,.93,1.95,2.24,1.95s2.2-.79,2.2-1.86c.01-.53-.23-1.22-1.36-1.52Z"></path><path class="c" d="M35.22,76.09c-.46-.36-1.06-.57-1.69-.57-1.59,0-2.89,1.29-2.89,2.89s1.29,2.89,2.89,2.89c.65,0,1.23-.22,1.69-.57v.47h1.43v-5.58h-1.43v.47Zm-1.57,3.89c-.86,0-1.57-.7-1.57-1.57s.7-1.57,1.57-1.57,1.57,.7,1.57,1.57-.71,1.57-1.57,1.57Z"></path><path class="c" d="M41.84,76.09c-.46-.36-1.06-.57-1.69-.57-1.59,0-2.89,1.29-2.89,2.89s1.29,2.89,2.89,2.89c.65,0,1.23-.22,1.69-.57v.47h1.43v-7.58h-1.43v2.47Zm-1.56,3.89c-.86,0-1.57-.7-1.57-1.57s.7-1.57,1.57-1.57,1.57,.7,1.57,1.57c-.01,.87-.71,1.57-1.57,1.57Z"></path><path class="c" d="M51.38,75.62h-1.43v5.58h1.43v-5.58Z"></path><path class="c" d="M59.77,75.52c-1.59,0-2.89,1.29-2.89,2.89s1.29,2.89,2.89,2.89,2.89-1.29,2.89-2.89-1.29-2.89-2.89-2.89Zm0,4.46c-.86,0-1.57-.7-1.57-1.57s.7-1.57,1.57-1.57,1.57,.7,1.57,1.57-.71,1.57-1.57,1.57Z"></path><path class="c" d="M64.76,76.55v-.94h-1.44v5.58h1.44v-3.35c0-.6,.39-.91,.99-.91h.79v-1.34h-.67c-.53,.01-.98,.29-1.11,.95Z"></path><path class="c" d="M18.69,73.63h-5.51v1.27h2.04v6.29h1.43v-6.29h2.04v-1.27Z"></path><path class="c" d="M46.56,79.67l-1.28-4.05h-1.51l1.92,5.58h1.74l1.93-5.58h-1.51l-1.28,4.05Z"></path><path class="c" d="M22.56,75.16c.48,0,.87-.39,.87-.87s-.39-.87-.87-.87-.87,.39-.87,.87,.39,.87,.87,.87Z"></path><path class="c" d="M50.67,75.16c.48,0,.87-.39,.87-.87s-.39-.87-.87-.87-.87,.39-.87,.87,.39,.87,.87,.87Z"></path><path class="c" d="M18.82,10.75h-2.4v7.1h-1.86v-7.1h-2.4v-1.71h6.68v1.71h-.01Z"></path><path class="c" d="M22.12,11.63v1.67h-.94c-.68,0-1.01,.32-1.01,1.01v3.55h-1.77v-6.23h1.64v1.16c.14-.83,.7-1.16,1.29-1.16h.79Z"></path><path class="c" d="M22.34,14.75c0-1.83,1.29-3.29,3.08-3.29,.88,0,1.54,.28,1.95,.7v-.53h1.64v6.23h-1.64v-.75c-.4,.54-.99,.94-2,.94-1.75-.01-3.03-1.47-3.03-3.3Zm5.04,0c0-.99-.73-1.65-1.64-1.65s-1.64,.66-1.64,1.65,.73,1.65,1.64,1.65,1.64-.66,1.64-1.65Z"></path><path class="c" d="M29.71,11.63h1.89l.95,3.29c.12,.38,.17,.63,.24,.92,.06-.29,.13-.54,.24-.92l.95-3.29h1.89l-2.07,6.23h-2.02l-2.06-6.23Z"></path><path class="c" d="M42.19,15.17h-4.62c.08,.86,.72,1.41,1.49,1.41,.72,0,1.25-.38,1.4-.95h1.69c-.3,1.52-1.42,2.4-3.08,2.4-1.95,0-3.23-1.43-3.23-3.29s1.48-3.29,3.22-3.29c1.96,0,3.15,1.2,3.15,3.43v.28h-.01Zm-4.53-1.33h2.89c-.17-.61-.67-1.02-1.48-1.02-.65,0-1.19,.39-1.41,1.02Z"></path><path class="c" d="M42.99,9.04h1.77v8.82h-1.77V9.04Z"></path><path class="c" d="M45.83,9.04h1.77v8.82h-1.77V9.04Z"></path><path class="c" d="M54.71,15.17h-4.62c.08,.86,.72,1.41,1.49,1.41,.72,0,1.25-.38,1.4-.95h1.69c-.3,1.52-1.42,2.4-3.08,2.4-1.95,0-3.23-1.43-3.23-3.29s1.48-3.29,3.22-3.29c1.96,0,3.15,1.2,3.15,3.43v.28h-.01Zm-4.54-1.33h2.89c-.17-.61-.67-1.02-1.48-1.02-.64,0-1.19,.39-1.41,1.02Z"></path><path class="c" d="M59.24,11.63v1.67h-.94c-.68,0-1.01,.32-1.01,1.01v3.55h-1.77v-6.23h1.64v1.16c.14-.83,.7-1.16,1.29-1.16h.79Z"></path><path class="c" d="M59.71,15.83h1.79c0,.43,.27,.72,.69,.72s.67-.2,.67-.52c0-.34-.28-.53-.84-.69l-.82-.24c-.82-.24-1.39-.82-1.39-1.72,0-1.14,1.03-1.91,2.32-1.91,1.47,0,2.26,.83,2.26,1.99h-1.66c0-.3-.24-.59-.61-.59-.36,0-.59,.2-.59,.44,0,.29,.23,.43,.72,.57l.91,.25c.83,.23,1.41,.8,1.41,1.72,0,1.17-.92,2.19-2.39,2.19-1.36-.01-2.46-.85-2.46-2.22Z"></path><path class="c" d="M65.25,11.9h.16c.43,0,.82-.23,.89-.87-.08,.04-.15,.05-.25,.05-.61,0-1.1-.46-1.1-1.11s.5-1.11,1.11-1.11c.8,0,1.24,.73,1.24,1.69,0,1.54-.74,2.25-1.79,2.25h-.27v-.91h0Z"></path><path class="c" d="M20.14,24.78c0-2.71,2.02-4.59,4.45-4.59s3.86,1.31,4.19,3.41h-1.91c-.28-1.03-1.11-1.66-2.3-1.66-1.42,0-2.59,1.16-2.59,2.85s1.16,2.85,2.59,2.85c1.17,0,2.02-.6,2.3-1.68h1.94c-.38,2.11-2.04,3.42-4.24,3.42-2.46,.01-4.44-1.86-4.44-4.58Z"></path><path class="c" d="M29.6,20.37h1.77v3.44c.28-.52,.98-1.02,1.98-1.02,1.24,0,2.1,.87,2.1,2.3v4.12h-1.77v-3.6c0-.73-.5-1.24-1.16-1.24s-1.16,.51-1.16,1.24v3.6h-1.77v-8.83h.01Z"></path><path class="c" d="M36.13,26.08c0-1.83,1.34-3.29,3.36-3.29s3.36,1.47,3.36,3.29-1.34,3.29-3.36,3.29-3.36-1.47-3.36-3.29Zm4.97,0c0-.99-.69-1.65-1.59-1.65s-1.59,.66-1.59,1.65,.69,1.65,1.59,1.65,1.59-.66,1.59-1.65Z"></path><path class="c" d="M43.33,21.06c0-.61,.5-1.11,1.11-1.11s1.11,.5,1.11,1.11-.5,1.11-1.11,1.11-1.11-.48-1.11-1.11Zm.23,1.91h1.77v6.23h-1.77v-6.23Z"></path><path class="c" d="M46.03,26.08c0-1.83,1.33-3.29,3.29-3.29s3.03,1.05,3.21,2.51h-1.84c-.17-.52-.61-.87-1.37-.87-.8,0-1.52,.66-1.52,1.65s.72,1.65,1.52,1.65c.74,0,1.17-.32,1.37-.87h1.84c-.29,1.52-1.31,2.51-3.21,2.51s-3.29-1.47-3.29-3.29Z"></path><path class="c" d="M59.26,26.49h-4.62c.08,.86,.72,1.41,1.49,1.41,.72,0,1.25-.38,1.4-.95h1.68c-.3,1.52-1.42,2.4-3.08,2.4-1.95,0-3.23-1.43-3.23-3.29s1.48-3.29,3.22-3.29c1.96,0,3.15,1.2,3.15,3.43v.28Zm-4.54-1.31h2.89c-.17-.61-.67-1.02-1.48-1.02-.65,0-1.19,.39-1.41,1.02Z"></path><path class="c" d="M58.64,20.87h1.06v.23h-.41v1.19h-.24v-1.19h-.41v-.23Z"></path><path class="c" d="M60.58,21.92l-.39-1.06h-.29v1.41h.24v-.79c0-.08-.01-.14-.01-.22l.37,1h.17l.37-1c-.01,.08-.01,.14-.01,.22v.79h.24v-1.41h-.29l-.39,1.06Z"></path><path class="c" d="M30.68,6.22l1.92-1.81c.5-.46,.72-.71,.72-1.2,0-.52-.4-.84-.94-.84-.61,0-.96,.38-1,.88h-.73c.03-.88,.68-1.57,1.76-1.57s1.67,.63,1.67,1.5c0,.61-.29,1.09-.92,1.65l-1.41,1.27h2.37v.71h-3.45v-.59h.01Z"></path><path class="c" d="M34.9,4.3c0-1.49,1.09-2.64,2.58-2.64s2.58,1.14,2.58,2.64-1.09,2.64-2.58,2.64-2.58-1.14-2.58-2.64Zm4.39,0c0-1.2-.83-1.94-1.81-1.94s-1.81,.74-1.81,1.94,.83,1.94,1.81,1.94,1.81-.73,1.81-1.94Z"></path><path class="c" d="M40.81,6.22l1.92-1.81c.5-.46,.72-.71,.72-1.2,0-.52-.4-.84-.94-.84-.61,0-.96,.38-1,.88h-.73c.03-.88,.68-1.57,1.76-1.57s1.67,.63,1.67,1.5c0,.61-.29,1.09-.92,1.65l-1.41,1.27h2.37v.71h-3.45v-.59h.01Z"></path><path class="c" d="M45.29,6.22l1.92-1.81c.5-.46,.72-.71,.72-1.2,0-.52-.4-.84-.94-.84-.61,0-.96,.38-1,.88h-.73c.03-.88,.68-1.57,1.76-1.57s1.67,.63,1.67,1.5c0,.61-.29,1.09-.92,1.65l-1.41,1.27h2.37v.71h-3.45v-.59h.01Z"></path></g></svg>